<svg xmlns="http://www.w3.org/2000/svg" xml:space="preserve" viewBox="0 0 682.667 682.667">
    <g transform="matrix(-1 0 0 1 682.66234398 0)">
        <defs>
            <clippath id="a" clipPathUnits="userSpaceOnUse">
                <path d="M0 512h512V0H0Z"/>
            </clippath>
        </defs>
        <g fill="none" stroke="currentColor" stroke-linecap="round" stroke-linejoin="round" stroke-miterlimit="10" stroke-width="15" clip-path="url(#a)" transform="matrix(1.33333 0 0 -1.33333 0 682.667)">
            <path d="M178.05 154.415H52.654c-24.938 0-45.155 20.217-45.155 45.155v112.86c0 24.938 20.217 45.155 45.155 45.155h222.428v11.953c0 23.882 19.436 43.311 43.325 43.311 9.725 0 19.288-3.344 26.924-9.416l142.813-113.538c10.392-8.262 16.354-20.615 16.355-33.893 0-13.277-5.96-25.632-16.352-33.896l-142.816-113.54c-7.638-6.072-17.2-9.416-26.924-9.416h-.002c-23.926 0-43.323 19.397-43.323 43.324v11.941H208.05"/>
            <path d="M111.297 319.247H59.622c-7.612 0-13.784-6.171-13.784-13.784v-98.925c0-7.613 6.172-13.784 13.784-13.784h248.835a4.965 4.965 0 0 0 4.964-4.965v-45.327c0-4.155 4.801-6.471 8.053-3.885l142.813 113.538c2.499 1.987 2.499 5.783 0 7.771L321.474 373.424c-3.252 2.586-8.053.27-8.053-3.886v-45.327a4.965 4.965 0 0 0-4.964-4.964h-167.16"/>
        </g>
    </g>
</svg>