<svg xmlns="http://www.w3.org/2000/svg" xml:space="preserve" viewBox="0 0 512 512">
    <g fill="none" stroke="currentColor" stroke-linecap="round" stroke-linejoin="round" stroke-miterlimit="10" stroke-width="20">
        <path d="M255.209 15c133.101 0 241 107.899 241 241s-107.899 241-241 241"/>
        <path d="M255.209 105.375V256l120.5 120.5"/>
        <path stroke-dasharray="30 57" d="M168.049 31.255s5.814-2.327 12.237-4.334c6.423-2.007 13.872-4.111 13.872-4.111M94.862 76.012s4.63-4.216 9.944-8.345c5.314-4.129 11.554-8.709 11.554-8.709m-74.377 84.607s2.861-5.571 6.392-11.299c3.531-5.729 7.772-12.204 7.772-12.204M16.11 225.358s.729-6.22 2.03-12.822 3.006-14.153 3.006-14.153m-.625 112.65s-1.496-6.081-2.589-12.721-2.14-14.309-2.14-14.309m38.864 105.734s-3.531-5.172-6.88-11.009c-3.35-5.837-7.016-12.654-7.016-12.654m73.432 85.429s-5.118-3.608-10.3-7.902c-5.182-4.294-11.003-9.395-11.003-9.395m98.7 54.301s-6.058-1.587-12.415-3.795-13.597-4.947-13.597-4.947"/>
    </g>
</svg>