<svg xmlns="http://www.w3.org/2000/svg" xml:space="preserve" viewBox="0 0 682.667 682.667">
    <defs>
        <clippath id="a" clipPathUnits="userSpaceOnUse">
            <path d="M0 512h512V0H0Z"/>
        </clippath>
    </defs>
    <g fill="none" stroke="currentColor" stroke-linecap="round" stroke-linejoin="round" stroke-miterlimit="10" stroke-width="15" clip-path="url(#a)" transform="matrix(1.33333 0 0 -1.33333 0 682.667)">
        <path d="m212.398 425.63 43.603-42.85 110.795 108.885c5.955 5.85 13.843 9.071 22.216 9.071 8.372 0 16.261-3.221 22.214-9.071l83.859-82.411c5.984-5.88 9.416-14.063 9.416-22.45 0-8.386-3.432-16.569-9.416-22.449L384.918 256.088l110.104-108.203c6.022-5.918 9.476-14.153 9.479-22.593.003-8.441-3.445-16.678-9.459-22.599l-83.634-82.322c-5.965-5.872-13.861-9.106-22.233-9.106h-.002c-8.36 0-16.25 3.227-22.213 9.088L256.001 129.397 145.043 20.353c-5.965-5.861-13.856-9.088-22.216-9.088-8.373 0-16.269 3.234-22.235 9.107l-83.631 82.319c-6.105 6.011-9.464 14.037-9.46 22.601.002 8.44 3.457 16.673 9.475 22.591l110.108 108.205L16.915 364.355C10.93 370.238 7.5 378.42 7.5 386.804c0 8.385 3.43 16.566 9.412 22.446l83.862 82.415c5.95 5.849 13.84 9.071 22.215 9.071 8.373 0 16.262-3.221 22.215-9.071l41.752-41.032"/>
        <path d="m416.437 189.62-64.883 63.762a3.794 3.794 0 0 0 0 5.412L477.342 382.41a6.157 6.157 0 0 1 0 8.788l-83.859 82.411c-2.459 2.417-6.483 2.417-8.942 0L258.66 349.9a3.796 3.796 0 0 0-5.319 0L127.459 473.609c-2.459 2.416-6.482 2.416-8.941 0l-83.859-82.411a6.157 6.157 0 0 1 0-8.788l125.787-123.616a3.796 3.796 0 0 0 0-5.412L34.723 129.829a6.38 6.38 0 0 1-.004-9.097l83.632-82.32a6.378 6.378 0 0 1 8.946-.004l126.044 123.868a3.796 3.796 0 0 0 5.319 0L384.703 38.408a6.38 6.38 0 0 1 8.947.004l83.632 82.32a6.38 6.38 0 0 1-.003 9.097l-35.247 34.638"/>
    </g>
</svg>