<svg xmlns="http://www.w3.org/2000/svg" xml:space="preserve" viewBox="0 0 682.667 682.667">
    <defs>
        <clippath id="a" clipPathUnits="userSpaceOnUse">
            <path d="M0 512h512V0H0Z"/>
        </clippath>
    </defs>
    <g fill="none" stroke="currentColor" stroke-linecap="round" stroke-linejoin="round" stroke-miterlimit="10" stroke-width="15" clip-path="url(#a)" transform="matrix(1.33333 0 0 -1.33333 0 682.667)">
        <path d="M322.445 467.72a144.547 144.547 0 0 0 35.671 5.04c78.946 1.25 144.718-62.001 146.351-140.941 1.28-61.775-35.615-127.831-109.603-196.269-53.627-49.603-110.437-84.857-121.28-91.421a33.945 33.945 0 0 0-35.171.003c-10.84 6.561-67.651 41.815-121.277 91.418C43.151 203.984 6.256 270.038 7.531 331.811c1.63 78.941 67.4 142.197 146.348 140.949 38.794-.613 74.913-16.636 101.119-43.695a1.39 1.39 0 0 1 2.004 0 143.555 143.555 0 0 0 31.514 24.554"/>
        <path d="M128.874 165.837c53.786-51.815 113.533-88.957 125.121-95.97a3.868 3.868 0 0 1 4.01 0c21.933 13.275 216.41 134.492 216.41 258.844 0 62.951-51.031 113.982-113.982 113.982-43.856 0-81.927-24.768-100.988-61.079-1.467-2.795-5.423-2.795-6.89 0-19.061 36.311-57.132 61.079-100.988 61.079-62.951 0-113.983-51.031-113.983-113.982 0-47.948 28.915-95.43 65.702-136.437"/>
    </g>
</svg>