<svg xmlns="http://www.w3.org/2000/svg" xml:space="preserve" viewBox="0 0 682.667 682.667">
    <defs>
        <clippath id="a" clipPathUnits="userSpaceOnUse">
            <path d="M0 512h512V0H0Z"/>
        </clippath>
    </defs>
    <g fill="none" stroke="currentColor" stroke-linecap="round" stroke-linejoin="round" stroke-miterlimit="10" stroke-width="15" clip-path="url(#a)" transform="matrix(1.33333 0 0 -1.33333 0 682.667)">
        <path d="m113.061 371.473 40.297 7.499 44.687 82.162a65.926 65.926 0 0 0 57.954 34.451 65.926 65.926 0 0 0 57.955-34.452l44.687-82.161 91.949-17.11a65.927 65.927 0 0 0 50.674-44.472 65.926 65.926 0 0 0-14.856-65.764l-64.332-67.889L434.218 91c2.466-18.837-3.271-37.79-15.741-51.999-12.594-14.352-30.69-22.584-49.649-22.586-9.834-.001-19.384 2.171-28.383 6.455l-84.446 40.205-84.445-40.205c-8.997-4.283-18.546-6.455-28.38-6.455-18.959 0-37.055 8.231-49.65 22.581C81.053 53.207 75.315 72.161 77.781 91l12.142 92.737-64.332 67.888a65.928 65.928 0 0 0-14.856 65.765 65.927 65.927 0 0 0 50.674 44.472l22.153 4.122"/>
        <path d="m413.278 230.075-22.426-23.667a27.714 27.714 0 0 1-7.363-22.659l12.793-97.715c2.852-21.779-19.558-38.061-39.39-28.619l-88.98 42.363a27.713 27.713 0 0 1-23.825 0l-88.979-42.363c-19.832-9.442-42.243 6.84-39.391 28.619l12.793 97.715a27.714 27.714 0 0 1-7.362 22.659l-67.786 71.534c-15.108 15.944-6.548 42.289 15.046 46.307l96.886 18.029a27.709 27.709 0 0 1 19.275 14.004l47.086 86.573c10.495 19.295 38.195 19.295 48.689 0l47.086-86.573a27.709 27.709 0 0 1 19.275-14.004l96.886-18.029c21.595-4.018 30.154-30.363 15.046-46.307l-25.135-26.525"/>
    </g>
</svg>